<svg xmlns="http://www.w3.org/2000/svg" viewBox="0 0 31 31">
  <g fill="none" fill-rule="evenodd">
    <path fill="#708DB1" d="M25.84 30.4H4.6a4.53 4.53 0 01-4.55-4.56V.74c0-.4.3-.7.7-.7H22.1c.4 0 .7.3.7.7v25.1a3.04 3.04 0 003.04 3.04c.4 0 .71.3.71.7 0 .41-.3.81-.7.81zM1.46 1.45v24.38a3.04 3.04 0 003.03 3.04H22.5a4.77 4.77 0 01-1.21-3.04V1.46H1.46z"/>
    <path fill="#708DB1" d="M25.84 30.4a4.53 4.53 0 01-4.55-4.56V6.92c0-.4.3-.7.7-.7h7.6c.4 0 .7.3.7.7v18.92a4.39 4.39 0 01-4.45 4.55zM22.81 7.62v18.21a3.04 3.04 0 003.03 3.04 3.04 3.04 0 003.04-3.04V7.63H22.8z"/>
    <path fill="#93B1D7" d="M10.58 22.49H5a.7.7 0 01-.7-.7c0-.41.3-.72.7-.72h5.57c.4 0 .7.3.7.71 0 .4-.3.71-.7.71zM10.58 19.02H5a.7.7 0 01-.7-.71c0-.4.3-.7.7-.7h5.57c.4 0 .7.3.7.7 0 .4-.3.7-.7.7z"/>
    <path fill="#A9A1DB" d="M18.09 22.49h-4.4c-.31 0-.55-.3-.55-.7 0-.41.24-.72.55-.72h4.4c.32 0 .56.3.56.71 0 .4-.24.71-.56.71zM18.09 19.06h-4.4c-.31 0-.55-.3-.55-.71 0-.4.24-.71.55-.71h4.4c.32 0 .56.3.56.7 0 .41-.24.72-.56.72z"/>
    <path fill="#C6DAEC" d="M18.09 6.9h-4.4c-.31 0-.55-.3-.55-.7 0-.41.24-.71.55-.71h4.4c.32 0 .56.3.56.7 0 .4-.24.71-.56.71zM18.09 10.34h-4.4c-.31 0-.55-.3-.55-.71 0-.4.24-.71.55-.71h4.4c.32 0 .56.3.56.7 0 .41-.24.72-.56.72z"/>
    <path fill="#A9A1DB" d="M18.09 15.62h-4.4c-.31 0-.55-.3-.55-.7 0-.41.24-.71.55-.71h4.4c.32 0 .56.3.56.7 0 .4-.24.71-.56.71z"/>
    <path fill="#CF6DB2" d="M17.78 25.67H5.07c-.44 0-.76-.3-.76-.7 0-.41.32-.72.76-.72h12.71c.43 0 .76.3.76.71 0 .4-.33.7-.76.7z"/>
    <path fill="#B2649B" d="M8.22 14.46v-1c1.46-.21 2.2-1.23 2.2-2.4 0-1.98-1.56-2.3-2.78-2.4-.83-.05-1.21-.32-1.21-.8 0-.48.42-.75 1.18-.75.62 0 1.15.17 1.6.67l.9-1.22a3.04 3.04 0 00-1.89-.94v-1h-1.4v1.05c-1 .21-1.97.88-1.97 2.24 0 1.7 1.46 2.21 2.68 2.32.92.06 1.3.27 1.3.78 0 .55-.57.91-1.18.9a3.33 3.33 0 01-2.23-1.05l-.8 1.32c.7.83 1.45 1.16 2.2 1.27v1.01h1.4z"/>
  </g>
</svg>