<svg xmlns="http://www.w3.org/2000/svg" viewBox="0 0 31 31">
  <g fill="none" fill-rule="evenodd">
    <g transform="translate(1 1)">
      <circle cx="14.3" cy="14.3" r="14.3" fill="#FFF" stroke="currentColor" stroke-width="1.27"/>
      <path fill="#B2649B" d="M14.3 3.58a10.73 10.73 0 100 21.45 10.73 10.73 0 000-21.46zm.36 5.71c2.55 0 4.64 2.1 4.64 4.65 0 2.56-2.09 4.65-4.64 4.65A4.66 4.66 0 0110 13.94c0-2.55 2.1-4.64 4.65-4.64zm0 15.02a9.41 9.41 0 01-6.8-2.96 6.36 6.36 0 014.65-2.05h4.29c1.82 0 3.46.8 4.65 2.05a9.41 9.41 0 01-6.8 2.96z"/>
    </g>
  </g>
</svg>